<?xml version="1.0" encoding="UTF-8" standalone="no"?>
<!-- Generator: Adobe Illustrator 23.0.1, SVG Export Plug-In . SVG Version: 6.00 Build 0)  -->

<svg
   version="1.1"
   id="Livello_1"
   x="0px"
   y="0px"
   viewBox="0 0 1881.25 1750"
   enable-background="new 0 0 1881.25 1750"
   xml:space="preserve"
   sodipodi:docname="picencrypt.svg"
   inkscape:version="1.2 (dc2aedaf03, 2022-05-15)"
   xmlns:inkscape="http://www.inkscape.org/namespaces/inkscape"
   xmlns:sodipodi="http://sodipodi.sourceforge.net/DTD/sodipodi-0.dtd"
   xmlns="http://www.w3.org/2000/svg"
   xmlns:svg="http://www.w3.org/2000/svg"
   xmlns:ns="&amp;ns_sfw;"><defs
   id="defs8066"><rect
     x="0"
     y="519.09428"
     width="962.5"
     height="756.96272"
     id="rect8386" /></defs><sodipodi:namedview
   id="namedview8064"
   pagecolor="#ffffff"
   bordercolor="#000000"
   borderopacity="0.25"
   inkscape:showpageshadow="2"
   inkscape:pageopacity="0.0"
   inkscape:pagecheckerboard="0"
   inkscape:deskcolor="#d1d1d1"
   showgrid="true"
   inkscape:zoom="0.11282732"
   inkscape:cx="1493.4326"
   inkscape:cy="119.65187"
   inkscape:window-width="1080"
   inkscape:window-height="626"
   inkscape:window-x="-6"
   inkscape:window-y="17"
   inkscape:window-maximized="1"
   inkscape:current-layer="Livello_1"><inkscape:grid
     type="xygrid"
     id="grid8844" /></sodipodi:namedview>
<metadata
   id="metadata8034">
	<ns:sfw>
		<ns:slices />
		<ns:sliceSourceBounds
   bottomLeftOrigin="true"
   height="1750"
   width="1881.25"
   x="-938.5"
   y="-851" />
	</ns:sfw>
</metadata>
<path
   id="rect8784"
   style="fill:#ff0000;stroke-width:10.0006;stroke-linecap:round"
   d="M 1018.1426 51.857422 L 854.7832 51.857422 C 821.54338 51.857422 794.7832 78.617587 794.7832 111.85742 L 794.7832 270.2168 L 794.7832 866.85742 C 794.7832 900.09726 821.54338 926.85742 854.7832 926.85742 L 984.19727 926.85742 C 965.25181 926.85742 950 911.60558 950 892.66016 L 950 274.19727 C 950 272.85749 950.09568 271.54289 950.24414 270.24414 L 950 270 L 950 120 C 950 120 949.9417 118.93554 949.98047 117.07227 C 950.01924 115.20899 950.15572 112.5477 950.54297 109.35352 C 950.93022 106.15934 951.56783 102.43218 952.61328 98.439453 C 953.13601 96.443091 953.76051 94.379384 954.50586 92.283203 C 955.25121 90.187022 956.11832 88.059141 957.125 85.929688 C 958.13168 83.800234 959.2792 81.670399 960.58594 79.574219 C 961.89267 77.478038 963.35841 75.414331 965.00391 73.417969 C 966.6494 71.421606 968.47312 69.492108 970.49609 67.662109 C 972.51907 65.83211 974.74052 64.100996 977.17969 62.503906 C 979.61886 60.906816 982.27585 59.44412 985.16992 58.146484 C 988.064 56.848849 991.19629 55.716792 994.58398 54.785156 C 997.97168 53.85352 1001.6151 53.122138 1005.5352 52.623047 C 1009.4552 52.123956 1013.6515 51.857422 1018.1426 51.857422 z " /><path
   id="path8907"
   style="fill:#aa0000;stroke-width:10.0006;stroke-linecap:round"
   d="M 1018.1426 51.857422 C 1013.6515 51.857422 1009.4552 52.123956 1005.5352 52.623047 C 1001.6151 53.122138 997.97168 53.85352 994.58398 54.785156 C 991.19629 55.716792 988.064 56.848849 985.16992 58.146484 C 982.27585 59.44412 979.61886 60.906816 977.17969 62.503906 C 974.74052 64.100996 972.51907 65.83211 970.49609 67.662109 C 968.47312 69.492108 966.6494 71.421606 965.00391 73.417969 C 963.35841 75.414331 961.89267 77.478038 960.58594 79.574219 C 959.2792 81.670399 958.13168 83.800234 957.125 85.929688 C 956.11832 88.059141 955.25121 90.187022 954.50586 92.283203 C 953.76051 94.379384 953.13601 96.443091 952.61328 98.439453 C 951.56783 102.43218 950.93022 106.15934 950.54297 109.35352 C 950.15572 112.5477 950.01924 115.20899 949.98047 117.07227 C 949.9417 118.93554 950 120 950 120 L 950 270 L 950.24414 270.24414 C 952.19502 253.17767 966.59159 240 984.19727 240 L 985 240 L 1327.2422 240 C 1346.1876 240 1361.4395 255.25183 1361.4395 274.19727 L 1361.4395 114.19727 C 1361.4395 114.19727 1361.4395 110.44723 1360.502 104.82227 C 1360.0334 102.00977 1359.3302 98.7285 1358.2754 95.212891 C 1357.2209 91.697279 1355.8145 87.94725 1353.9395 84.197266 C 1353.002 82.322271 1351.9463 80.44726 1350.7598 78.601562 C 1349.5733 76.755867 1348.2558 74.939446 1346.791 73.181641 C 1345.3261 71.423833 1343.7159 69.724604 1341.9434 68.113281 C 1340.1709 66.50196 1338.2364 64.978509 1336.127 63.572266 C 1334.0176 62.16602 1331.7315 60.876949 1329.2559 59.734375 C 1326.7803 58.591801 1324.1152 57.5957 1321.2441 56.775391 C 1318.373 55.955079 1315.2976 55.310544 1312.002 54.871094 C 1308.7061 54.431641 1305.1892 54.197266 1301.4395 54.197266 C 1293.9395 54.197266 1287.377 53.884762 1281.6348 53.337891 C 1277.8828 52.980556 1274.9944 52.393091 1271.9102 51.857422 L 1018.1426 51.857422 z " /><path
   id="path8848"
   style="fill:#ff2a2a;stroke-width:10.0006;stroke-linecap:round"
   d="m 1271.9102,51.857426 c 3.0842,0.535672 5.9726,1.123134 9.7246,1.480469 5.7421,0.546874 12.3046,0.859375 19.8046,0.859375 3.75,0 7.2666,0.234375 10.5625,0.673828 3.296,0.439453 6.3712,1.083985 9.2423,1.904297 2.871,0.820312 5.536,1.816407 8.0117,2.958984 2.4755,1.142577 4.7617,2.431642 6.871,3.837891 2.1095,1.406249 4.044,2.929689 5.8165,4.541016 1.7725,1.611326 3.3827,3.310548 4.8476,5.068359 1.4649,1.757811 2.7823,3.574221 3.9687,5.419922 1.1866,1.845701 2.2422,3.720705 3.1797,5.595703 1.875,3.749996 3.2814,7.500004 4.3359,11.015625 1.0547,3.515621 1.758,6.796875 2.2266,9.609375 0.9375,5.62499 0.9375,9.375 0.9375,9.375 v 160 618.46289 c 0,18.94548 -15.2518,34.19727 -34.1973,34.19727 h 129.4141 c 33.2399,0 60,-26.76007 60,-60 v -755 c 0,-33.239938 -26.7601,-60.000004 -60,-60.000004 z" /><path
   id="path8720"
   style="fill:#d40000"
   d="M 1159.3789 640 L 1159.3789 875 L 1159.3789 1515 L 1159.3789 1750 L 1202.2324 1750 C 1205.1526 1750 1207.9983 1749.7235 1210.8047 1749.3242 C 1213.6107 1749.7234 1216.4572 1750 1219.377 1750 L 1801.0566 1750 C 1845.3466 1750 1881.252 1714.0966 1881.252 1669.8066 L 1881.252 1434.8066 L 1881.252 1312.5 L 1881.252 1077.5 L 1881.252 699.96094 C 1881.2288 666.7394 1854.4784 640 1821.252 640 L 1219.377 640 C 1216.4572 640 1213.6107 640.27658 1210.8047 640.67578 C 1207.9983 640.27648 1205.1526 640 1202.2324 640 L 1159.3789 640 z " /><path
   id="path8781"
   style="fill:#ff2a2a"
   d="M 498.125 640 C 467.52303 640 442.68914 662.76717 438.89648 692.30469 C 438.01888 696.40163 437.50391 700.63343 437.50391 705 L 437.50391 935 L 437.50391 1460 L 437.50391 1690 C 437.50391 1723.24 464.26406 1750 497.50391 1750 L 1079.1836 1750 C 1079.4805 1750 1079.7625 1749.945 1080.0586 1749.9414 L 1080 1750 L 1115 1750 L 1114.9102 1749.8789 C 1115.4558 1749.8937 1115.976 1750 1116.5254 1750 L 1159.3789 1750 L 1159.3789 1745 L 1160 1745 L 1160 1515 L 1160 870 L 1160 640 L 1117.1465 640 C 1114.2263 640 1111.3806 640.27648 1108.5742 640.67578 C 1105.7674 640.27634 1102.9206 640 1100 640 L 498.125 640 z " />



<path
   opacity="0.1"
   enable-background="new    "
   d="M969.806,350H437.5v1093.75h532.306c44.23-0.144,80.05-35.964,80.194-80.194  V430.194C1049.856,385.964,1014.036,350.144,969.806,350z"
   id="path8044" />
<path
   opacity="0.2"
   enable-background="new    "
   d="M926.056,393.75H437.5V1487.5h488.556c44.23-0.144,80.05-35.964,80.194-80.194  V473.944C1006.106,429.714,970.286,393.894,926.056,393.75z"
   id="path8046" />
<path
   opacity="0.2"
   enable-background="new    "
   d="M926.056,393.75H437.5V1400h488.556c44.23-0.144,80.05-35.964,80.194-80.194  V473.944C1006.106,429.714,970.286,393.894,926.056,393.75z"
   id="path8048" />
<path
   opacity="0.2"
   enable-background="new    "
   d="M882.306,393.75H437.5V1400h444.806c44.23-0.144,80.05-35.964,80.194-80.194  V473.944C962.356,429.714,926.536,393.894,882.306,393.75z"
   id="path8050" />
<linearGradient
   id="SVGID_1_"
   gradientUnits="userSpaceOnUse"
   x1="167.2057"
   y1="1420.9117"
   x2="795.2943"
   y2="333.0883"
   gradientTransform="matrix(1 0 0 -1 0 1752)">
	<stop
   offset="0"
   style="stop-color:#2368C4"
   id="stop8052" />
	<stop
   offset="0.5"
   style="stop-color:#1A5DBE"
   id="stop8054" />
	<stop
   offset="1"
   style="stop-color:#1146AC"
   id="stop8056" />
</linearGradient>
<path
   fill="url(#SVGID_1_)"
   d="M80.194,393.75h802.112c44.29,0,80.194,35.904,80.194,80.194v802.113  c0,44.29-35.904,80.194-80.194,80.194H80.194c-44.29,0-80.194-35.904-80.194-80.194V473.944C0,429.654,35.904,393.75,80.194,393.75z  "
   id="path8059"
   style="fill:#ff0000" />

<text
   xml:space="preserve"
   id="text8384"
   style="font-size:7.33333px;white-space:pre;shape-inside:url(#rect8386);display:inline;fill:#ffffff;stroke-width:10.0006;stroke-linecap:round"
   transform="matrix(124.34442,0,0,124.34442,173.80936,-64171.843)"><tspan
     x="0"
     y="525.78417"
     id="tspan9150">E</tspan></text><circle
   style="fill:#550000;stroke-width:10.0006;stroke-linecap:round"
   id="path8946"
   cx="1160"
   cy="1200"
   r="200" /></svg>
